<svg version="1.2" xmlns="http://www.w3.org/2000/svg" viewBox="0 0 1190 1684" width="1120" height="1585">
	<title>final logo-ai</title>
	<style>
		.s0 { fill: #d0291a } 
		.s1 { fill: #ff8e2b } 
		.s2 { fill: #667373 } 
	</style>
	<g id="Layer 1">
		<g id="&lt;Group&gt;">
			<g id="Group 1">
				<path id="Path 1" class="s0" d="m459.7 689.8c0.9 5.3-0.6 10.6-4.2 14.6-1.5 2-3.4 3.8-5.4 5.4-5.6 3.7-12.3 5.3-18.9 4.7q-30.7 0-61.3 0c-5.4-0.5-10.1 3.4-10.7 8.8q-0.1 0.7 0 1.5c0.1 4.1 0 8.1-0.1 12.2 0 2.2 0.9 2.9 3.1 2.9 24.2-0.1 48.3-0.2 72.5 0 7.8-0.1 15.1 3.9 19.3 10.6 2.3 3 4 6.5 4.8 10.3q0.2 2.6-0.1 5.3 0 11 0 22c0.1 6.3-2.2 12.3-6.4 16.9-4.3 4.8-10.5 7.6-17 7.6-33 0.2-66.1 0.1-99.1 0.1-2.7 0-3.1-1-3.2-3.4-0.5-7.6 3.5-14.8 10.1-18.7q0.5-0.4 1.1-0.5 6.6-1.3 13.2-1.7c19.7 0 39.4 0.3 59.1 0.2q6.5-0.3 12.9-1.6c4.3-0.7 4.9-4.4 5.3-7.7q0.4-5.7 0.1-11.5c-0.1-2.4-1.5-3.2-3.8-3.1-9 0-18 0.1-27 0.1-14.4 0-28.9-0.1-43.3 0-7.3 0.3-14.5-2.3-19.8-7.3-4.7-3.9-7.6-9.6-7.9-15.6-0.1-10.3-0.2-20.5 0.2-30.7 0.1-5.5 2.7-10.7 6.9-14.2 5.5-4.6 12.4-7.2 19.6-7.4 32.2 0.1 64.4 0.1 96.6 0.1 1.1 0 2.3 0.1 3.4 0.1z"/>
				<path id="Path 2" class="s0" d="m244.3 798.8q-0.4 2-0.5 4c0 2.4 0.1 4.9 0.2 7.3 0.1 4.5 0 4.6-4.6 4.6q-10.4 0.6-20.8-0.1c-4.8-0.9-9.4-2.6-13.6-5-5.2-3.3-9.1-8.4-10.9-14.4-0.3-1.3-0.5-2.7-0.4-4.1q0.1-39.3 0.2-78.7c0-5.8 0.1-11.7 0.1-17.6-0.1-2.8 0.8-4 3.9-3.7 6.6 0.8 12.6 4.3 16.4 9.8 3.4 4.7 5.1 10.5 4.7 16.3-0.2 20.1-0.2 40.3-0.1 60.4-0.4 4.4 1.7 8.7 5.4 11 1.1 0.7 2.3 1.1 3.5 1.2 3.8 0.2 7.7 0.1 11.5 0.2 4.3 0 4.5-0.2 4.5-4.2q0.2-31.6 0.3-63.1c0.1-9.5 0.1-19 0-28.4 0-2.6 1-3.4 3.4-3.2 6.8 0.7 12.9 4.4 16.7 10.1 3.6 5.6 5.3 12.3 4.7 18.9-0.3 18.8-0.5 37.6-0.3 56.3 0 4.2-0.8 9.2 3.4 12.4 0.6 0.5 1.3 0.9 2.1 1.1 6.1 0 12.2 0 18.6 0v-3.7c0-13.9 0-27.7 0.1-41.6q0.1-16 0.4-32c0.1-6.1 0.5-12.3 0.6-18.4 0.1-2.4 1-3.2 3.3-3.1 6.9 0.8 13.1 4.6 16.9 10.4 2.6 3.6 4 7.9 3.8 12.3q0 49-0.1 97.9 0 1.6-0.3 3.2c-5.3-0.7-10.2-2.9-14.2-6.3q-5.7-5.4-10.3-11.6v17.8h-8.9c-4.5 0-9 0.1-13.5 0-9.6-0.2-18.5-5-24.1-12.9q-0.8-1.4-1.2-3.1z"/>
				<path id="Path 3" fill-rule="evenodd" class="s0" d="m178.8 814.6c-1.2 0.1-2.1 0.2-3.1 0.2-18.3 0-36.6 0.5-54.8-0.3-9.5 0-18.5-4.2-24.5-11.5-2.5-3-4-6.7-4.4-10.5-0.5-16.7-0.5-33.5-0.3-50.2 0.1-6.1 4.4-9.7 9.1-12.6 4.3-2.4 9.2-3.4 14-3q18 0 36 0.1c4.4 0 5.1-1.1 3.9-5.3-0.2-0.5-0.4-1-0.5-1.5-1.1-4.6-2.3-5.6-7.2-5.7-7.4-0.1-14.8 0.1-22.2-0.1q-8.7 0-17.4-1.4c-3.7-0.5-7.1-2.5-9.3-5.6-1.5-2.6-3.8-4.7-5.2-7.4-1.2-2.4-1.9-5-2.3-7.6-0.3-2.2 1.4-2.5 3.2-2.5 6.3 0 12.6 0 18.9 0 13.9 0 27.8-0.3 41.7 0.1 9.8-0.1 18.7 5.6 22.7 14.6 1.3 2.8 2 5.9 1.8 9.1q0.1 49.1 0.1 98.2c0.1 0.9-0.1 1.7-0.2 2.9zm-23.7-24.9q0 0 0 0 0 0 0 0zm-0.2-28.2c-0.7-5.9-5.8-10.3-11.7-10.2-8.1 0.4-16.3 0.2-24.4 0.1-2.9-0.1-3.7 1-3.6 3.7 0.2 4.8 0.3 9.6 0 14.4-0.7 4.9 0.7 10 3.7 13.9 2.3 2.5 5.3 5.8 8.2 6 9.1 0.8 18.3 0.3 28 0.3 0-9.7 0.4-19-0.2-28.2z"/>
			</g>
			<g id="Group 2">
				<path id="Path 4" class="s0" d="m886 814.9v-15.9q-4.3 5.4-9.5 9.9c-5.2 4.1-11.6 6.2-18.2 6.1-6.8-0.3-13.6-0.1-20.9-0.1v-16l-0.8-0.3q-1.2 1.1-2.2 2.4c-3.7 6-9.5 10.4-16.2 12.4-4.5 1.3-9.2 1.8-13.8 1.5-24.9 0.1-49.8 0-74.8 0-7.6 0-14.6-3.9-18.7-10.3-1.5-2.5-2.3-5.3-2.3-8.1-0.1-29.4 0-58.7 0-88 0.1-7.8 5.1-14.6 12.4-17.1q3.7-1.1 7.6-1.7c3.1-0.6 3.9 1.1 3.9 3.8q-0.1 7.5-0.1 15.1c0 15.4-0.2 30.9 0 46.4 0.1 9.3 0.7 18.6 1.2 27.9 0.3 3.9 3.4 7 7.3 7.1q31.4 0.1 62.8-0.1c3.2-0.5 6-2.7 7.1-5.7 1.4-3.4 1.9-7.2 1.5-10.9 0-19.7 0.2-39.4-0.2-59.2-0.2-6 1.8-11.9 5.8-16.5 3.7-4.9 9.5-7.9 15.7-8.1 1.5-0.1 3 1 3.2 2.6q0 0.3 0 0.6c0.2 9.2 0.3 18.5 0.4 27.7 0.1 21.8 0.1 43.5 0.2 65.3 0 1.2 0 2.5 0 4.2 6.4 0 12.6 0.2 18.7-0.2 1.5-0.1 3.4-2.2 4.2-3.9 1.2-2.7 1.9-5.6 2.1-8.6 0.1-13.7 0.1-27.5-0.1-41.2-0.1-7.5-0.7-14.9-0.7-22.4-0.3-5.9 1.9-11.6 6-15.9 4.9-4.6 9.9-9.4 18-7.8 0.1 1.7 0.2 3.4 0.2 5q0.2 44.5 0.3 89-0.2 1.9 0.2 3.7c0.4 1 1.5 2.2 2.4 2.2q6.8 0.6 13.7 0c5.7-0.7 8.5-4.8 8.6-11.4 0.4-14 0.2-28 0.1-41.9 0-7.4 0.2-14.8 0-22.1-0.2-8.2 3.7-15.9 10.4-20.6 2.9-2.7 6.7-4.2 10.6-4.3 1.7-0.2 3.2 0.9 3.5 2.6q0.1 0.3 0 0.6c0.2 1.8 0.2 3.6 0.2 5.4q0.2 45.9 0.3 91.9c-0.2 9.6-6.1 18.2-15 21.9-5.9 2.4-12.2 3.5-18.6 3-5.2-0.1-10.6 0-16.5 0z"/>
				<path id="Path 5" fill-rule="evenodd" class="s0" d="m1014.4 776.8c-1.6-0.1-2.8-0.2-4.1-0.2q-21.3 0-42.6-0.1c-6.4-0.5-12-4.4-14.7-10.2-1-2.3-1.7-4.9-1.8-7.4-0.2-13.9-0.1-27.8-0.1-41.6-0.2-7 2.4-13.9 7.2-18.9 3.4-2.8 7.1-5.1 11.2-6.8 6.2-3.3 13.1-2 19.7-2.1 15.4-0.3 30.8-0.1 46.2-0.1 2.6 0 4.4 0.2 4.4 3.7-0.2 31.4-0.1 62.7-0.3 94.1 0.6 8.1-2.9 16.1-9.3 21.1-2.8 2-5.8 3.6-9 4.8-4.9 1.5-10 2.1-15 1.7-16.3-0.1-32.5 0-48.8-0.1-4.6 0-6-1.5-5.5-6.2 0.3-5.8 3.2-11.3 7.8-14.9 2.7-1.9 5.7-3.1 9-3.4 11.9-0.4 23.9-0.2 35.9-0.2 7.5 0 9.9-2.2 10-9.9 0.1-1-0.1-1.9-0.2-3.3zm0.4-47.5h0.1q0-5.7 0-11.5c0-3.4-1-4.4-4.4-4.4q-9.3-0.1-18.6 0c-10.4 0.1-16 4.9-16.8 15.2-0.5 6.9-0.2 13.9-0.1 20.8 0 2.4 1.5 3.4 3.8 3.3 0.8-0.1 1.6-0.2 2.5-0.2 7.7-0.2 15.5-0.2 23.2-0.7 7.6-0.4 9.8-5.6 10.2-12.3 0.3-3.4 0.1-6.8 0.1-10.2z"/>
				<path id="Path 6" class="s0" d="m1079.9 690.3v5.9 113.9c0 4.1-0.4 4.7-4.6 4.6-6.6-0.2-13.2-0.7-19.8-0.9-2.9-0.1-3.6-1.7-3.6-4.4q0.2-53.4 0.2-106.9-0.1-4.8-0.1-9.6c-0.1-1.9 0.7-3.2 2.7-3.2 7.9 0 15.8 0.1 23.7 0.1q0.8 0.2 1.5 0.5z"/>
			</g>
			<path id="Path 7" class="s0" d="m693.7 794.6c-1.4 18.1-7.3 35.6-17.3 50.7-4.9 7.4-10.6 14.1-17.1 20-35.8 32.3-88.5 37.1-129.5 11.8-9.9-6-18.8-13.6-26.3-22.4-39.4-45.8-24.6-102.5-23.3-107 0.9 5.9 6.7 40.9 38.8 62.5 11.5 7.7 24.7 12.4 38.5 13.8 17.6 25.2 49.3 39.2 79.2 32.3 29.8-6.9 52.4-31.4 57-61.7z"/>
			<path id="&lt;Path&gt;" class="s1" d="m693.7 794.6q-0.9 6.1-2.8 11.7-0.9 2.9-2 5.6-0.6 1.4-1.2 2.7-0.6 1.3-1.2 2.5-0.1 0.3-0.2 0.5-0.5 0.9-1 1.7-0.2 0.6-0.5 1.1-0.5 0.7-0.9 1.5-0.3 0.4-0.5 0.8-0.6 0.9-1.1 1.8-0.3 0.3-0.4 0.6-0.8 1.1-1.6 2.2-0.6 0.9-1.3 1.7-1.1 1.5-2.3 2.9-1 1.1-2 2.2 0 0.1-0.1 0.1-0.9 1-1.9 2-1.9 2-4 3.8-0.8 0.6-1.6 1.3-0.6 0.5-1.3 1.1-0.2 0.1-0.3 0.2-1.1 0.8-2.2 1.6-1.3 1-2.6 1.8-0.9 0.6-1.7 1.1-1.5 0.9-3 1.7c-2.5 1.5-5.2 2.8-7.9 3.9q-0.9 0.3-1.7 0.6-1.9 0.8-3.8 1.4-1.2 0.3-2.3 0.7-0.8 0.2-1.7 0.4-0.9 0.3-2 0.5-2.2 0.5-4.4 0.9-0.7 0.1-1.3 0.2-0.7 0.1-1.3 0.2-0.2 0-0.4 0-0.9 0.1-1.8 0.2-1.1 0.1-2.3 0.2-0.1 0-0.2 0-5.4 0.3-10.7-0.3-1.1-0.1-2.3-0.2-2.3-0.3-4.6-0.8-1.1-0.2-2.2-0.5-1.1-0.2-2.2-0.5-1.5-0.4-3-0.9-0.8-0.2-1.6-0.4-1.1-0.4-2.2-0.8-1.1-0.4-2.1-0.8-3.3-1.3-6.4-2.9-2.1-1-4.2-2.2-0.9-0.5-1.8-1.1-0.3-0.1-0.5-0.3-1.9-1.1-3.6-2.4-0.7-0.4-1.4-1-0.8-0.5-1.5-1.1-0.4-0.3-0.9-0.6-0.9-0.8-1.8-1.5-0.8-0.7-1.5-1.3-0.5-0.4-1-0.9-0.5-0.4-1-0.9 0 0-0.1-0.1-2.6-2.4-4.9-5-0.8-0.9-1.6-1.8-0.7-0.9-1.5-1.9-1.5-1.8-2.8-3.8 0 0 0 0 4.7 0.5 9.2 0.5h1.6c5-0.1 10-0.5 14.9-1.3q1.1-0.1 2.1-0.3c7.1-1.2 14.1-3.2 20.8-6 7.5-3.2 40.1-18.5 51.4-56.4 6.8-24.3 3.2-50.3-9.8-71.9 23.7 21.3 34.9 53.3 29.7 84.8 3.4-5.6 5.8-11.6 7.1-18 1.2-5.7 1.4-11.7 0.7-17.5 7.1 18 10 37.4 8.5 56.7z"/>
			<path id="&lt;Path&gt;" class="s0" d="m589.2 842.3c-8.5-3.4-15.6-9.4-20.5-17.1l-0.3-0.6c0-0.1-0.1-0.1-0.1-0.1 5-0.1 10-0.5 14.9-1.3q1.1-0.1 2.1-0.3-0.1 0.5 0 1c0.1 6.3 1.4 12.6 3.9 18.4z"/>
			<g id="Group 4">
				<path id="Path 11" fill-rule="evenodd" class="s2" d="m731.1 861.8h2.5v3h-2.9c-2.2 0.2-4.4-0.9-5.5-2.8-1.2 1.1-2.9 1.7-4.5 1.7-2.1 0.1-4-0.8-5.3-2.5-1.1-1.4-1.7-3.2-1.6-5-0.1-2.2 0.7-4.3 2.2-5.8 1.2-1.3 2.9-1.9 4.6-1.9 1.3 0 2.5 0.3 3.6 1v-1.6l3.3-1.7v11.9c-0.3 1.8 0.9 3.4 2.7 3.7q0.4 0.1 0.9 0zm-6.9-8.8c-0.9-1-2.1-1.6-3.4-1.5-1.1-0.1-2.1 0.4-2.7 1.3-1.4 2.1-1.4 4.8 0 6.9 0.6 0.8 1.6 1.3 2.7 1.2 1.4 0.1 2.7-0.6 3.5-1.7q-0.1-0.6-0.1-1zm-4.9-9.1c-0.8 0.1-1.7-0.5-1.8-1.4q0 0 0 0 0-0.2 0-0.5c-0.1-0.8 0.5-1.7 1.4-1.8q0.2 0 0.4 0c0.9-0.1 1.7 0.5 1.9 1.4q0 0.2 0 0.4c0.1 0.9-0.5 1.7-1.4 1.9q-0.2 0-0.5 0zm4.8 0c-0.9 0.1-1.7-0.5-1.8-1.4q-0.1-0.2 0-0.5c-0.1-0.8 0.5-1.7 1.4-1.8q0.2 0 0.4 0c0.9-0.1 1.7 0.5 1.8 1.4q0 0 0 0 0.1 0.2 0 0.4c0.2 0.9-0.4 1.7-1.3 1.9q-0.2 0-0.5 0z"/>
				<path id="Path 12" class="s2" d="m744.4 861.8h2.5v3h-2.9c-1.8 0.1-3.6-0.6-4.9-2-1.3 1.4-3.1 2.1-4.9 2h-2.9v-3h2.5c1.8 0.2 3.4-1 3.7-2.8q0.1-0.4 0-0.9v-7.7l3.2-1.7v9.4c-0.2 1.8 1 3.4 2.8 3.7q0.4 0.1 0.9 0zm-9 6.7c0.9-0.1 1.7 0.5 1.8 1.4q0.1 0.2 0 0.4c0.1 0.9-0.5 1.7-1.3 1.9q0 0 0 0-0.3 0-0.5 0c-0.9 0.1-1.7-0.5-1.8-1.4q-0.1-0.2 0-0.5c-0.2-0.8 0.5-1.7 1.4-1.8q0 0 0 0 0.2 0 0.4 0zm4.8 0c0.9-0.1 1.7 0.5 1.8 1.4q0 0.2 0 0.4c0.1 0.9-0.5 1.7-1.4 1.9q-0.2 0-0.4 0c-0.9 0.1-1.7-0.5-1.8-1.4q-0.1-0.2-0.1-0.5c-0.1-0.8 0.5-1.7 1.4-1.8q0.3 0 0.5 0z"/>
				<path id="Path 13" class="s2" d="m744.6 864.8v-3h2c1.9 0.2 3.7-1.1 3.9-3.1q0.1-0.5 0-0.9v-15.2l3.3-1.7v16.9c0.3 3.6-2.4 6.7-6 7q-0.4 0-0.9 0z"/>
				<path id="Path 14" fill-rule="evenodd" class="s2" d="m770.2 863.6q-1.7 0.6-3.5 0.6c-2.1 0-4.1-0.9-5.3-2.5-1.1-1.6-1.7-3.4-1.6-5.3-0.2-2.3 0.6-4.5 2.1-6.2 1.3-1.3 3.2-2.1 5.1-2 1.8-0.1 3.6 0.6 4.9 2 1 1.3 1.6 2.9 1.5 4.5v8.1c0.2 2.5-0.6 4.8-2.2 6.7-1.4 1.5-3.5 2.4-5.6 2.3-1.5 0-3-0.4-4.4-1.1v-2.8c1.2 0.6 2.6 1 3.9 1 1.4 0.1 2.7-0.4 3.6-1.4 0.9-1.1 1.5-2.5 1.5-3.9zm0-8.7q0-3.7-3.2-3.7c-1.2-0.1-2.3 0.5-3 1.4-0.8 1.1-1.1 2.4-1.1 3.7 0 1.3 0.3 2.6 1.1 3.7 0.6 0.9 1.7 1.5 2.8 1.4 1.3 0.2 2.5-0.3 3.4-1.4z"/>
				<path id="Path 15" class="s2" d="m791.8 861.8h2.5v3h-2.9c-1.1 0-2.3-0.2-3.3-0.8-0.1 2.2-1 4.3-2.6 5.9-1.4 1.3-3.2 2-5.2 2-1.5 0-3-0.4-4.4-1.1v-2.8c1.2 0.7 2.5 1 3.9 1 1.4 0.1 2.8-0.5 3.7-1.6 1-1.2 1.5-2.8 1.4-4.4v-12.6l3.2-1.7h0.1v10.1c0 1.8 1.5 3.1 3.3 3q0.1 0 0.3 0z"/>
				<path id="Path 16" class="s2" d="m805.1 861.8h2.5v3h-2.9c-1.8 0.1-3.6-0.6-4.9-2-1.3 1.4-3.1 2.1-4.9 2h-2.9v-3h2.5c1.8 0.2 3.5-1 3.7-2.8q0.1-0.4 0-0.9v-7.7l3.2-1.7v9.4c-0.2 1.8 1 3.4 2.8 3.7q0.5 0.1 0.9 0zm-8.9-17.3c-0.9 0.1-1.7-0.5-1.8-1.4q0-0.2 0-0.5c-0.1-0.8 0.5-1.7 1.4-1.8q0.2 0 0.4 0c0.9-0.1 1.7 0.5 1.8 1.4q0.1 0.2 0 0.4c0.2 0.9-0.4 1.7-1.3 1.9q-0.2 0-0.5 0zm4.9 0c-0.9 0.1-1.8-0.5-1.9-1.4q0-0.2 0-0.5c-0.1-0.8 0.5-1.7 1.4-1.8q0.2 0 0.5 0c0.8-0.1 1.6 0.5 1.8 1.4q0 0.2 0 0.4c0.1 0.9-0.5 1.7-1.4 1.9q-0.2 0-0.4 0z"/>
				<path id="Path 17" class="s2" d="m818.4 861.8h2.5v3h-2.9c-1.8 0.1-3.6-0.6-4.9-2-1.2 1.4-3 2.1-4.9 2h-2.8v-3h2.4c1.8 0.2 3.5-1 3.7-2.8q0.1-0.4 0-0.9v-7.7l3.3-1.7v9.4c-0.3 1.8 0.9 3.4 2.7 3.7q0.5 0.1 0.9 0zm-5.5 6.7c0.9-0.1 1.7 0.5 1.8 1.3q0 0.3 0 0.5c0.1 0.9-0.5 1.7-1.3 1.9q-0.3 0-0.5 0c-0.9 0.1-1.7-0.5-1.8-1.4q0 0 0 0-0.1-0.3 0-0.5c-0.2-0.9 0.5-1.7 1.4-1.8q0.2 0 0.4 0z"/>
				<path id="Path 18" class="s2" d="m818.6 864.8v-3h2c2 0.2 3.7-1.1 4-3.1q0-0.5 0-0.9v-15.2l3.2-1.7v16.9c0.3 3.6-2.4 6.7-5.9 7q-0.5 0-1 0z"/>
				<path id="Path 19" class="s2" d="m834.9 864.8v-22.2l3.3-1.7v23.9z"/>
				<path id="Path 20" class="s2" d="m862.2 864.8c-1.8 0.1-3.6-0.6-4.8-2-1.1-1.3-1.6-2.9-1.5-4.5v-4.5l3.2-1.7v5.9q0 3.8 3.7 3.8h12.4q3.7 0 3.7-3.8v-7.6l3.2-1.7v9.6c0.1 1.8-0.6 3.7-2 5-1.2 1-2.8 1.6-4.5 1.5zm3.8-17.2c-0.9 0.1-1.7-0.5-1.9-1.4q0 0 0 0 0-0.2 0-0.5c-0.1-0.8 0.5-1.7 1.4-1.8q0.3 0 0.5 0c0.9-0.1 1.7 0.5 1.8 1.4q0 0 0 0 0 0.2 0 0.4c0.1 0.9-0.5 1.7-1.4 1.9q-0.2 0-0.4 0zm4.8 0c-0.9 0.1-1.8-0.5-1.9-1.4q0 0 0 0 0-0.2 0-0.5c-0.1-0.8 0.5-1.7 1.4-1.8q0.2 0 0.5 0c0.8-0.1 1.6 0.5 1.8 1.4q0 0.2 0 0.4c0.1 0.9-0.5 1.7-1.4 1.9q-0.2 0-0.4 0z"/>
				<path id="Path 21" class="s2" d="m895 864.8c-1.9 0.1-3.7-0.7-5-2.1-1.1-1.3-1.6-2.9-1.5-4.5v-15.6l3.2-1.7v17.2c-0.3 1.8 1 3.4 2.8 3.7q0.4 0 0.9 0h2.5v3z"/>
				<path id="Path 22" fill-rule="evenodd" class="s2" d="m901.8 854.8c-0.1-1.9 0.6-3.7 1.9-5 1.3-1.1 2.9-1.6 4.6-1.6 2.1-0.1 4.2 0.9 5.4 2.6 1.2 1.7 1.8 3.7 1.7 5.7 0.1 2.3-0.6 4.6-2.1 6.3-1.2 1.3-3 2.1-4.8 2-1.9 0.1-3.8-0.5-5.2-1.8-1.3 1.2-3 1.9-4.8 1.8h-2.9v-3h2.5c1.8 0.2 3.4-1 3.7-2.8q0.1-0.4 0-0.9zm3.2 3.6c-0.2 1.6 0.9 3.2 2.6 3.4q0.4 0.1 0.8 0c1.1 0.1 2.2-0.5 2.8-1.4 0.7-1.1 1.1-2.5 1-3.9 0.1-1.4-0.3-2.7-1.1-3.9-0.6-0.9-1.7-1.4-2.9-1.3q-3.2 0-3.2 3.7z"/>
				<path id="Path 23" class="s2" d="m918.9 864.8l1.6-3h6.7c0.8 0.1 1.6-0.2 2.1-0.8 0.5-0.7 0.7-1.6 0.6-2.5 0.1-3.2-1.7-6.1-4.6-7.4l1.7-2.8c3.6 1.8 6 5.4 6.1 9.4 0 1.2 0.3 2.3 1 3.1 0.9 0.7 1.9 1.1 3 1h2.2v3h-2.5c-1.8 0.1-3.6-0.6-4.9-2-0.9 1.4-2.5 2.1-4.1 2z"/>
				<path id="Path 24" class="s2" d="m961.6 861.8h2.4v3h-2.5c-1.6 0.1-3.3-0.2-4.9-0.7-1.3-0.5-2.4-1.3-3.4-2.4-3.3 2.1-7.1 3.2-11 3.1h-5.1v-3h5.1c4.6 0.2 9-1.6 12.1-5-1.3-3.2-4.2-5.4-7.6-5.6-2.4 0.1-4.7 1.3-6.3 3.1v-2.9c1.7-1.9 4.1-3.1 6.7-3.2 2 0.1 4 0.8 5.6 2.1 2 1.6 3.6 3.6 4.8 5.9v1.6q-1 1.3-2.2 2.3c1.8 1.3 4 1.9 6.3 1.7zm-13.2-17.6c-0.9 0.2-1.7-0.5-1.8-1.4q0-0.2 0-0.4c-0.1-0.9 0.5-1.7 1.4-1.8q0.2-0.1 0.4 0c0.9-0.1 1.7 0.5 1.8 1.3q0.1 0.3 0 0.5c0.2 0.9-0.4 1.7-1.3 1.8q-0.2 0.1-0.5 0z"/>
				<path id="Path 25" class="s2" d="m974.6 861.8h2.5v3h-2.9c-1.9 0.1-3.7-0.6-5-2-1.4 1.4-3.3 2.1-5.2 2h-2.3v-3h2c1.9 0.2 3.7-1.1 3.9-3q0.1-0.5 0-1v-15.2l3.3-1.7v16.9c-0.1 1.1 0.2 2.2 0.8 3.1 0.8 0.7 1.8 1 2.9 0.9z"/>
				<path id="Path 26" class="s2" d="m974.8 864.8v-3h2c1.9 0.2 3.7-1.1 3.9-3.1q0.1-0.5 0-0.9v-15.2l3.3-1.7v16.9c0.3 3.6-2.4 6.7-6 7q0 0 0 0-0.5 0-1 0z"/>
				<path id="Path 27" class="s2" d="m1041.8 850.4l3.3-1.7v9.5c0.3 3.4-2.2 6.3-5.6 6.6q-0.5 0-0.9 0h-2.6c-1.8 0.1-3.6-0.6-4.8-1.9-1.3 1.3-3.1 2-5 1.9h-2.4c-1.2 0-2.4-0.2-3.4-0.8-0.2 2.4-1.4 4.5-3.4 5.9-1.8 1.3-4.1 2-6.4 1.9-2.9 0.2-5.8-1.1-7.6-3.4-1.4-1.8-2.1-4-2.1-6.2 0-1.9 0.5-3.8 1.6-5.3l3.1-0.7c-1.1 1.7-1.7 3.7-1.7 5.7 0 1.9 0.7 3.7 2 5.1 1.2 1.2 2.9 1.9 4.7 1.8 1.9 0.2 3.8-0.5 5.1-1.9 1-1.1 1.6-2.6 1.5-4.1v-9.9l3.3-1.7v6.9c-0.3 1.8 0.9 3.4 2.7 3.7q0.4 0 0.9 0h1.8c1.8 0.2 3.4-1 3.6-2.8q0.1-0.5 0-0.9v-6.5l3.3-1.6v8.1c-0.3 1.8 0.9 3.4 2.7 3.7q0.5 0.1 0.9 0h1.8c1.8 0.2 3.4-1 3.7-2.8q0-0.5 0-0.9z"/>
				<path id="Path 28" fill-rule="evenodd" class="s2" d="m1061.5 863.6q-1.7 0.6-3.5 0.6c-2.1 0-4-0.9-5.3-2.5-1.1-1.6-1.7-3.4-1.6-5.3-0.1-2.3 0.6-4.5 2.1-6.2 1.4-1.3 3.2-2.1 5.1-2 1.8-0.1 3.6 0.6 4.9 2 1.1 1.3 1.6 2.9 1.5 4.5v8.1c0.2 2.5-0.6 4.8-2.2 6.7-1.4 1.5-3.5 2.4-5.6 2.3-1.5 0-3-0.4-4.4-1.1v-2.8c1.2 0.6 2.6 1 4 1 1.3 0.1 2.6-0.4 3.5-1.4 0.9-1.1 1.5-2.5 1.5-3.9zm0-8.7q0-3.7-3.2-3.7c-1.2-0.1-2.3 0.5-3 1.4-0.7 1.1-1.1 2.4-1 3.7-0.1 1.3 0.2 2.6 1 3.7 0.6 0.9 1.7 1.5 2.8 1.4 1.3 0.2 2.6-0.3 3.4-1.4z"/>
				<path id="Path 29" class="s2" d="m1071.5 864.8v-22.2l3.2-1.7v23.9z"/>
			</g>
			<g id="Group 5">
				<path id="Path 30" fill-rule="evenodd" class="s2" d="m101.4 851.2h2.7l7.1 19.5h-3l-1.5-4.4h-8l-1.5 4.4h-2.9zm1.3 3.5l-3.1 9.3h6.3z"/>
				<path id="Path 31" class="s2" d="m122.3 851.2h3.1l4.1 15.2 4.1-15.2h3l-5.7 19.5h-2.5q-2.2-6.6-4.5-15.4-2.4 8.8-4.6 15.4h-2.5l-5.7-19.5h3l4.1 15.2z"/>
				<path id="Path 32" class="s2" d="m149.6 854.3c-1.3-0.7-2.8-1-4.3-1.1-0.8 0-1.7 0.2-2.4 0.7-0.6 0.4-1 1.1-1 1.8q0 2 2.6 2.9c2 0.7 3.8 1.7 5.4 3 2.2 2.1 2.2 5.6 0 7.7q-0.2 0.3-0.5 0.5c-1.3 0.9-2.8 1.4-4.3 1.3-2.3-0.1-4.5-0.8-6.4-2.1l1.2-1.7c1.5 0.8 3.2 1.3 4.9 1.2q3.8 0 3.8-3.2 0-2.4-3.2-3.5c-1.8-0.5-3.4-1.4-4.9-2.6-0.9-0.8-1.5-2-1.5-3.3 0-1.5 0.6-2.9 1.8-3.8 1.3-0.9 2.9-1.4 4.4-1.3 2 0 4 0.6 5.6 1.7z"/>
				<path id="Path 33" fill-rule="evenodd" class="s2" d="m163.7 870.7v-19.5q2.5-0.4 5-0.4 7.1 0 7.1 6c0.1 1.9-0.7 3.7-2.1 4.9-1.4 1-2.9 1.4-4.6 1.4q-1.3 0-2.5-0.2v7.8zm2.8-17.4v7.2q1.3 0.3 2.6 0.3 3.7 0 3.7-4 0-3.7-4-3.7-1.1 0-2.2 0.2z"/>
				<path id="Path 34" class="s2" d="m180 851.2h11.9v2.4h-9v5.8h7.6v2.4h-7.6v6.6h9.4v2.3h-12.3z"/>
				<path id="Path 35" class="s2" d="m200.4 853.6h-5.8v-2.4h15.1v2.4h-6.4v17.2h-2.9z"/>
				<path id="Path 36" fill-rule="evenodd" class="s2" d="m213.3 870.7v-19.5q2.5-0.4 5-0.4 7.1 0 7.1 6c0.2 2.3-1.1 4.5-3.2 5.5l3.9 8.4h-2.9l-3.5-7.7q-0.6 0.1-1.2 0.1-1.2 0-2.3-0.2v7.8zm2.9-17.4v7.2q1.1 0.2 2.3 0.3c1.9 0.2 3.6-1.1 3.9-3q0-0.5 0-1 0-3.7-4-3.7-1.1 0-2.2 0.2z"/>
				<path id="Path 37" fill-rule="evenodd" class="s2" d="m237.1 871.1c-2.7 0.1-5.2-1.2-6.7-3.4-1.3-2-1.9-4.3-1.9-6.6-0.1-2.7 0.8-5.4 2.5-7.5 2.9-3.4 8-3.7 11.4-0.8q0 0 0 0 0.8 0.7 1.4 1.6c1.3 2 1.9 4.3 1.9 6.7 0.1 2.6-0.8 5.3-2.5 7.3-1.5 1.8-3.8 2.8-6.1 2.7zm0-2.5c1.8 0.1 3.4-0.8 4.3-2.3 0.9-1.6 1.3-3.4 1.2-5.2 0.1-2.1-0.4-4.1-1.6-5.9-0.9-1.2-2.3-2-3.9-1.9-1.8-0.1-3.5 0.9-4.3 2.5-0.9 1.6-1.3 3.4-1.2 5.3-0.2 2 0.4 4 1.5 5.7 1 1.2 2.5 1.9 4 1.8z"/>
				<path id="Path 38" class="s2" d="m250.1 870.7v-19.5h2.9v17.2h7.5v2.4z"/>
				<path id="Path 39" class="s2" d="m264.6 851.2h11.9v2.4h-9.1v5.8h7.6v2.4h-7.6v6.6h9.5v2.3h-12.4z"/>
				<path id="Path 40" class="s2" d="m295.5 862.6q0 8.5-7.2 8.5-7.2 0-7.2-8.5v-11.4h2.9v12q0 5.4 4.3 5.4 4.3 0 4.3-5.4v-12h2.9z"/>
				<path id="Path 41" class="s2" d="m304 854.6v16.1h-2.8v-19.5h3.6q3 6.6 5 13.5l0.9 3q0.3-0.9 0.6-2 2.2-7.4 5.4-14.5h3.6v19.6h-2.8v-16.2q-1.2 4.3-5.6 16.1h-2.3q-1.4-3.2-3.2-8.4-1.7-5.1-2.4-7.7z"/>
				<path id="Path 42" class="s2" d="m342.9 854.3c-1.3-0.7-2.7-1-4.2-1.1-0.9 0-1.7 0.2-2.5 0.7-0.6 0.4-0.9 1.1-0.9 1.8q0 2 2.5 2.9c2 0.7 3.9 1.7 5.5 3 2.1 2.1 2.1 5.6 0 7.8q-0.3 0.2-0.6 0.4c-1.2 0.9-2.7 1.4-4.3 1.3-2.2-0.1-4.4-0.8-6.3-2.1l1.2-1.7c1.5 0.8 3.1 1.3 4.8 1.2q3.8 0 3.8-3.2 0-2.4-3.2-3.5c-1.7-0.5-3.4-1.4-4.8-2.6-1-0.8-1.5-2-1.5-3.3-0.1-1.5 0.6-2.9 1.8-3.8 1.3-0.9 2.8-1.4 4.4-1.3 2 0 3.9 0.6 5.6 1.7z"/>
				<path id="Path 43" class="s2" d="m349.5 851.2h11.9v2.4h-9v5.8h7.6v2.4h-7.6v6.6h9.4v2.3h-12.3z"/>
				<path id="Path 44" fill-rule="evenodd" class="s2" d="m366.1 870.7v-19.5q2.5-0.4 5-0.4 7.1 0 7.1 6c0.2 2.3-1.1 4.5-3.2 5.5l3.9 8.4h-2.9l-3.5-7.7q-0.6 0.1-1.2 0.1-1.2 0-2.3-0.2v7.8zm2.8-17.4v7.2q1.2 0.2 2.4 0.3c1.9 0.2 3.6-1.1 3.9-3q0-0.5-0.1-1 0-3.7-3.9-3.7-1.1 0-2.2 0.2z"/>
				<path id="Path 45" class="s2" d="m383.3 851.2l5.2 15.2 5.1-15.2h3.1l-7.1 19.5h-2.3l-7.1-19.5z"/>
				<path id="Path 46" class="s2" d="m402.8 851.2v19.5h-2.8v-19.5z"/>
				<path id="Path 47" class="s2" d="m421.7 868.9c-1.5 1.4-3.5 2.2-5.6 2.2-2.8 0.1-5.4-1.2-6.9-3.4-1.3-1.9-2-4.2-2-6.5 0-2.7 0.8-5.3 2.4-7.4 1.4-1.9 3.6-3 6-3 2.1 0 4.2 0.8 5.9 2.1l-1.2 1.8c-1.2-0.9-2.6-1.4-4.1-1.4-1.8-0.1-3.5 0.8-4.4 2.3-1.1 1.7-1.6 3.6-1.5 5.6-0.1 2 0.5 3.9 1.8 5.5 1.1 1.2 2.7 1.9 4.3 1.9 1.5-0.1 3-0.6 4.2-1.5z"/>
				<path id="Path 48" class="s2" d="m425.9 851.2h11.9v2.4h-9v5.8h7.6v2.4h-7.6v6.6h9.4v2.3h-12.3z"/>
				<path id="Path 49" class="s2" d="m452.2 854.3c-1.3-0.7-2.8-1-4.3-1.1-0.8 0-1.7 0.2-2.4 0.7-0.6 0.4-1 1.1-1 1.8q0 2 2.6 2.9c2 0.7 3.8 1.7 5.4 3 2.1 2.1 2.1 5.6 0 7.7q-0.3 0.3-0.5 0.5c-1.3 0.9-2.8 1.4-4.3 1.3-2.3-0.1-4.5-0.8-6.4-2.1l1.2-1.7c1.5 0.8 3.2 1.3 4.9 1.2q3.7 0 3.7-3.2 0-2.4-3.1-3.5c-1.8-0.5-3.5-1.4-4.9-2.6-1-0.8-1.5-2-1.5-3.3 0-1.5 0.6-2.9 1.8-3.8 1.3-0.9 2.8-1.4 4.4-1.3 2 0 4 0.6 5.6 1.7z"/>
			</g>
			<path id="&lt;Path&gt;" class="s0" d="m626.2 753.4c-0.1 11.8-5.2 23-13.9 30.8q-0.6 0.5-1.1 1-1.9 1.7-3.9 3.6c-11.2 10.6-16.8 15.9-19.6 22.4-1.6 3.7-2.4 7.7-2.4 11.7q-1 0.2-2.1 0.3c-4.9 0.8-9.9 1.2-14.9 1.3-4.1-7-6.2-15-6-23.2-0.1-2.1 0-4.2 0.2-6.3q0.2-1.8 0.6-3.5c0.7-3.3 1.8-6.5 3.3-9.5 3.5-6.2 8.3-11.6 14-15.9q3-2.5 5.6-4.5 0.9-0.7 1.8-1.5c4.4-4.1 7.2-9.9 7.6-16v-0.2q0.3-4.3-0.4-8.6 1.9 2 3.2 4.5c1.1 2 1.9 4.2 2.3 6.4 4.2-9.5 5.8-19.9 4.6-30-0.4-4-1.3-8-2.5-11.8q-0.2-0.6-0.4-1.1-0.5-1.4-1-2.6 1.8 2.3 3.5 4.7 2.4 3.3 4.6 6.8c2.5 3.9 4.6 8.2 6 12.7 1.6 5.1 2.5 10.6 2.5 16.3 0 0.4 0 0.8 0 1.2 2.2-4.2 2.2-6.2 2.2-10.8q0.1 0.1 0.1 0.2 0 0 0.1 0.1 2 3.5 3.3 7.5 0 0 0 0.1c1.5 3.9 2.4 7.5 2.6 11.7 0 0.7 0.1 1.5 0.1 2.2z"/>
			<path id="&lt;Path&gt;" class="s0" d="m620.7 646.2c-1.1 15.4-7 30.2-16.7 42.2q-4.1 4.8-9.1 8.7-3.4 2.7-7.2 4.9-0.1 0.1-0.2 0.1h-0.1q-6.1 3.6-11.4 8.2c-5.2 4.4-9.8 9.5-13.7 15.1q-1.6 2.3-3 4.6c-8.8 14.4-13.1 30.7-12.7 46.9q0.1 8 1.7 15.8c1.7 8.1 4.5 16 8.5 23.4-18.4-6-34.3-18-45-34.2-12.7-20.6-16.4-45.5-10.2-68.8 6.8-24.3 20.4-46.3 39.1-63.2 8.6-7.6 13.7-18.3 14.3-29.7v-0.3c0.2-6.4-0.4-12.8-1.9-19.1 5 3.7 9.1 8.4 12.1 13.9 11.4-21.4 11.3-47.2-0.3-68.5 23.3 15.3 36.9 41.8 35.7 69.7 2.1-8.2 2.8-16.8 2.2-25.3 13.6 15.1 20.1 35.3 17.9 55.6z"/>
		</g>
	</g>
</svg>