<?xml version="1.0" encoding="utf-8"?>
<!-- Generator: Adobe Illustrator 16.0.0, SVG Export Plug-In . SVG Version: 6.00 Build 0)  -->
<!DOCTYPE svg PUBLIC "-//W3C//DTD SVG 1.1//EN" "http://www.w3.org/Graphics/SVG/1.1/DTD/svg11.dtd">
<svg version="1.1" id="Layer_1" xmlns="http://www.w3.org/2000/svg" xmlns:xlink="http://www.w3.org/1999/xlink" x="0px" y="0px"
	 width="297.64px" height="318.101px" viewBox="0 0 297.64 318.101" enable-background="new 0 0 297.64 318.101"
	 xml:space="preserve">
<g id="XMLID_468_">
	<path id="XMLID_469_" fill="#F9F4F4" d="M220.018,180.085c-0.574-0.276-22.054-10.854-25.871-12.228
		c-1.559-0.56-3.228-1.105-5.003-1.105c-2.9,0-5.338,1.446-7.235,4.285c-2.145,3.189-8.642,10.782-10.648,13.05
		c-0.261,0.3-0.619,0.657-0.833,0.657c-0.193,0-3.517-1.369-4.523-1.806c-23.042-10.009-40.532-34.079-42.931-38.138
		c-0.342-0.583-0.356-0.849-0.359-0.849c0.084-0.309,0.859-1.085,1.259-1.487c1.169-1.157,2.437-2.683,3.664-4.159
		c0.581-0.699,1.162-1.4,1.733-2.06c1.779-2.07,2.571-3.677,3.49-5.539l0.481-0.968c2.243-4.455,0.327-8.214-0.292-9.428
		c-0.508-1.016-9.578-22.905-10.542-25.204c-2.319-5.55-5.383-8.134-9.641-8.134c-0.395,0,0,0-1.657,0.071
		c-2.018,0.085-13.004,1.531-17.862,4.593c-5.151,3.248-13.866,13.601-13.866,31.807c0,16.386,10.399,31.857,14.863,37.742
		c0.111,0.148,0.315,0.449,0.61,0.881c17.098,24.971,38.413,43.476,60.02,52.107c20.801,8.31,30.651,9.27,36.252,9.27l0,0
		c2.354,0,4.238-0.185,5.899-0.349l1.054-0.101c7.187-0.637,22.979-8.819,26.571-18.802c2.828-7.862,3.574-16.453,1.692-19.57
		C225.053,182.501,222.832,181.435,220.018,180.085z"/>
	<path id="XMLID_470_" fill="#F9F4F4" d="M151.936,10.78C72.137,10.78,7.217,75.213,7.217,154.41
		c0,25.615,6.855,50.69,19.841,72.634l-24.855,73.32c-0.463,1.367-0.119,2.879,0.892,3.908c0.73,0.745,1.72,1.146,2.731,1.146
		c0.388,0,0.778-0.058,1.159-0.18l76.454-24.295c20.921,11.179,44.566,17.079,68.498,17.079
		c79.79,0.001,144.704-64.425,144.704-143.614C296.64,75.213,231.726,10.78,151.936,10.78z M151.936,268.106
		c-22.519,0-44.329-6.502-63.077-18.805c-0.63-0.414-1.362-0.626-2.099-0.626c-0.389,0-0.78,0.059-1.16,0.18l-38.298,12.174
		l12.364-36.476c0.399-1.181,0.199-2.482-0.537-3.489c-14.277-19.507-21.823-42.555-21.823-66.654
		c0-62.7,51.422-113.71,114.628-113.71c63.198,0,114.615,51.011,114.615,113.71C266.55,217.103,215.134,268.106,151.936,268.106z"/>
</g>
</svg>
